<svg width="480" height="360" viewBox="0 0 480 360" fill="none" xmlns="http://www.w3.org/2000/svg">
  <rect width="480" height="360" rx="28" fill="#F7F6FF"/>
  <rect x="222" y="72" width="186" height="122" rx="18" fill="#17304F"/>
  <rect x="238" y="88" width="154" height="90" rx="12" fill="#DDE8FF"/>
  <rect x="276" y="208" width="80" height="18" rx="9" fill="#17304F"/>
  <rect x="250" y="226" width="132" height="14" rx="7" fill="#9DBDFF"/>
  <circle cx="140" cy="128" r="42" fill="#FFC89D"/>
  <path d="M108 112C118 80 161 82 171 110L184 146H99L108 112Z" fill="#7D5CFF"/>
  <rect x="120" y="176" width="40" height="90" rx="16" fill="#7D5CFF"/>
  <rect x="94" y="184" width="30" height="68" rx="15" fill="#17304F"/>
  <rect x="162" y="184" width="30" height="68" rx="15" fill="#17304F"/>
  <rect x="114" y="258" width="36" height="16" rx="8" fill="#17304F"/>
  <rect x="160" y="258" width="36" height="16" rx="8" fill="#17304F"/>
  <rect x="162" y="162" width="104" height="14" rx="7" fill="#17304F" transform="rotate(12 162 162)"/>
  <rect x="88" y="274" width="146" height="34" rx="17" fill="#FFF0DB"/>
  <rect x="102" y="286" width="18" height="6" rx="3" fill="#FF9D2F"/>
  <rect x="128" y="286" width="84" height="6" rx="3" fill="#B79057"/>
  <ellipse cx="244" cy="332" rx="154" ry="16" fill="#E7E0FF"/>
</svg>
