<svg width="256" height="256" viewBox="0 0 256 256" fill="none" xmlns="http://www.w3.org/2000/svg">
  <defs>
    <linearGradient id="bg" x1="36" y1="28" x2="220" y2="222" gradientUnits="userSpaceOnUse">
      <stop stop-color="#9EDCFF"/>
      <stop offset="0.55" stop-color="#C9E7FF"/>
      <stop offset="1" stop-color="#FFD78A"/>
    </linearGradient>
    <linearGradient id="cheek" x1="0" y1="0" x2="1" y2="1">
      <stop stop-color="#FF9BC0"/>
      <stop offset="1" stop-color="#FFC6DB"/>
    </linearGradient>
    <filter id="shadow" x="8" y="12" width="240" height="236" filterUnits="userSpaceOnUse" color-interpolation-filters="sRGB">
      <feDropShadow dx="0" dy="12" stdDeviation="12" flood-color="#3B6DB0" flood-opacity="0.22"/>
    </filter>
  </defs>

  <g filter="url(#shadow)">
    <rect x="20" y="20" width="216" height="216" rx="58" fill="url(#bg)"/>
    <circle cx="70" cy="62" r="18" fill="#F3FBFF" fill-opacity="0.65"/>
    <circle cx="184" cy="196" r="22" fill="#FFF6D8" fill-opacity="0.72"/>
    <circle cx="190" cy="68" r="10" fill="#FFFFFF" fill-opacity="0.7"/>

    <path d="M63 146C63 109.549 92.5492 80 129 80C165.451 80 195 109.549 195 146C195 182.451 165.451 212 129 212H97C78.2223 212 63 196.778 63 178V146Z" fill="#F9FDFF"/>
    <path d="M98 92C106.757 86.1266 117.29 82.6923 128.625 82.6923C159.209 82.6923 184 107.483 184 138.067C184 168.651 159.209 193.442 128.625 193.442H109.808C100.845 193.442 92.6655 190.136 86.4092 184.677C97.5076 178.683 105 166.927 105 153.423C105 139.919 97.5125 128.167 86.4207 122.171C88.9558 110.268 92.6202 99.2377 98 92Z" fill="#E9F8FF"/>

    <ellipse cx="103" cy="144" rx="9" ry="12" fill="#27456B"/>
    <ellipse cx="155" cy="144" rx="9" ry="12" fill="#27456B"/>
    <circle cx="99" cy="140" r="2.5" fill="#FFFFFF"/>
    <circle cx="151" cy="140" r="2.5" fill="#FFFFFF"/>

    <ellipse cx="89" cy="164" rx="11" ry="7" fill="url(#cheek)" fill-opacity="0.85"/>
    <ellipse cx="169" cy="164" rx="11" ry="7" fill="url(#cheek)" fill-opacity="0.85"/>

    <path d="M117 171C120.635 176.262 124.785 178.893 129.45 178.893C134.115 178.893 138.365 176.262 142.2 171" stroke="#27456B" stroke-width="6" stroke-linecap="round"/>
    <path d="M122 156C122 152.686 124.686 150 128 150H130C133.314 150 136 152.686 136 156V157.5C136 159.433 134.433 161 132.5 161H125.5C123.567 161 122 159.433 122 157.5V156Z" fill="#FFAF72"/>

    <path d="M62 120C62 120 54 109 59 97C63.6217 85.908 77.5 84 77.5 84" stroke="#62A9FF" stroke-width="6" stroke-linecap="round"/>
    <path d="M190 117C190 117 200 106 196 94C192.303 82.9106 179.5 81 179.5 81" stroke="#FFBA4A" stroke-width="6" stroke-linecap="round"/>

    <rect x="73" y="42" width="110" height="32" rx="16" fill="#FFFFFF" fill-opacity="0.76"/>
    <path d="M92 60C92 53.3726 97.3726 48 104 48H152C158.627 48 164 53.3726 164 60C164 66.6274 158.627 72 152 72H104C97.3726 72 92 66.6274 92 60Z" fill="#6C9DFF"/>
    <path d="M99 60.5L107 52.5V68.5" stroke="#FFFFFF" stroke-width="6" stroke-linecap="round" stroke-linejoin="round"/>
    <path d="M117 68V53L128.5 61L140 53V68" stroke="#FFFFFF" stroke-width="6" stroke-linecap="round" stroke-linejoin="round"/>
    <path d="M150 68V53L157 60L150 68Z" stroke="#FFFFFF" stroke-width="6" stroke-linecap="round" stroke-linejoin="round"/>

    <path d="M76 208C95.5 194 111.5 192 128 192C144.5 192 160 195 180 208" stroke="#7ECF8A" stroke-width="10" stroke-linecap="round"/>
    <circle cx="94" cy="206" r="5" fill="#FFD35F"/>
    <circle cx="164" cy="202" r="5" fill="#FFD35F"/>
    <circle cx="178" cy="210" r="4" fill="#FFFFFF"/>
  </g>
</svg>
